HIERARCHY
ROOT Hips
{
  OFFSET 1.44925e-005 102.336 -0.101585
  CHANNELS 6 Xposition Yposition Zposition Zrotation Xrotation Yrotation
  JOINT LeftUpLeg
  {
    OFFSET 8.9458 -8.66707 0.101652
    CHANNELS 3 Zrotation Xrotation Yrotation
    JOINT LeftLeg
    {
      OFFSET 0 -44.4227 1.3727
      CHANNELS 3 Zrotation Xrotation Yrotation
      JOINT LeftFoot
      {
        OFFSET -0.253549 -42.0924 -1.46059
        CHANNELS 3 Zrotation Xrotation Yrotation
        JOINT LeftToes
        {
          OFFSET -0.04 -4.41509 8.4991
          CHANNELS 3 Zrotation Xrotation Yrotation
          End Site
          {
            OFFSET 0.08 -0.047448 9.77979
          }
        }
      }
    }
  }
  JOINT Spine
  {
    OFFSET 0 11.8905 0
    CHANNELS 3 Zrotation Xrotation Yrotation
    JOINT Spine1
    {
      OFFSET 0 25.6574 0.127663
      CHANNELS 3 Zrotation Xrotation Yrotation
      JOINT RightShoulder
      {
        OFFSET -8.99 -0.362252 -0.22
        CHANNELS 3 Zrotation Xrotation Yrotation
        JOINT RightArm
        {
          OFFSET -10.2827 -0.00338 0.322123
          CHANNELS 3 Zrotation Xrotation Yrotation
          JOINT RightForeArm
          {
            OFFSET -26.364 0.099144 -1.42434
            CHANNELS 3 Zrotation Xrotation Yrotation
            JOINT RightHand
            {
              OFFSET -22.0324 0.085362 1.02216
              CHANNELS 3 Zrotation Xrotation Yrotation
              End Site
              {
                OFFSET -13.3284 -0.6 1.50291
              }
            }
          }
        }
      }
      JOINT LeftShoulder1
      {
        OFFSET 8.99 -0.362252 -0.22
        CHANNELS 3 Zrotation Xrotation Yrotation
        JOINT LeftArm
        {
          OFFSET 10.2827 -0.00337999 0.322123
          CHANNELS 3 Zrotation Xrotation Yrotation
          JOINT LeftForeArm
          {
            OFFSET 26.2597 0.099144 -1.42434
            CHANNELS 3 Zrotation Xrotation Yrotation
            JOINT LeftHand
            {
              OFFSET 22.0902 0.085362 1.02216
              CHANNELS 3 Zrotation Xrotation Yrotation
              End Site
              {
                OFFSET 13.419 -0.6 1.50291
              }
            }
          }
        }
      }
      JOINT Head
      {
        OFFSET 0 8.73416 0.011341
        CHANNELS 3 Zrotation Xrotation Yrotation
        End Site
        {
          OFFSET -0.29 12.7742 2.51395
        }
      }
    }
  }
  JOINT RightUpLeg
  {
    OFFSET -8.9458 -8.66707 0.101652
    CHANNELS 3 Zrotation Xrotation Yrotation
    JOINT RightLeg
    {
      OFFSET 0 -44.4227 1.3727
      CHANNELS 3 Zrotation Xrotation Yrotation
      JOINT RightFoot
      {
        OFFSET 0.253549 -42.0924 -1.46059
        CHANNELS 3 Zrotation Xrotation Yrotation
        JOINT RightToes
        {
          OFFSET 0.04 -4.41509 8.4991
          CHANNELS 3 Zrotation Xrotation Yrotation
          End Site
          {
            OFFSET -0.08 -0.137448 9.77979
          }
        }
      }
    }
  }
}
MOTION
Frames:	7
Frame Time:	0.0333333
48.2622 97.1803 5.43925 -6.83356 3.9703 -86.6792 2.14673 8.09576 1.73533 1.50031 54.0232 16.6907 -10.5636 -2.23382 0.504867 -1.33678e-009 8.75219e-006 -1.46745e-008 10.0312 11.9349 -2.33515 -0.100655 -1.48269 -0.636448 36.8091 1.75253 0.0715345 37.8868 -25.6101 4.67505 8.61409 42.0335 5.19009 -9.37432 9.45124 0.605998 -44.4803 3.55653 -3.44864 -29.2362 -12.8842 7.43552 -3.62631 36.9602 -15.2276 5.82328 9.61819 -0.917488 0.83739 -11.8348 -6.81848 6.86281 -17.4924 -5.65548 -0.33927 29.4384 -18.5369 -1.99368 -11.5901 -0.266249 0.0462048 0.000530889 0.662642 
45.334 97.4499 5.14071 -7.25927 4.34972 -85.7187 2.49615 2.54252 -0.383672 2.0665 63.0863 18.3006 -8.93803 -0.332599 0.565371 -1.33678e-009 8.75219e-006 -1.46745e-008 11.0966 12.3056 -2.55172 -0.111371 -1.27395 -0.462326 36.7802 1.74658 0.0601721 38.4527 -24.5602 5.92801 7.92248 39.5131 7.05883 -9.80758 9.40054 0.977232 -44.5706 3.56083 -3.44025 -29.3741 -12.09 8.11734 -3.74644 37.1244 -15.1315 5.82328 9.61819 -0.917488 1.08523 -12.0587 -7.81218 7.46998 -15.2686 -5.15862 0.138451 29.7323 -20.0144 -1.27188 -13.3983 -0.274645 0.0462048 0.000530889 0.662642 
42.3418 97.9295 4.88157 -7.72723 4.08784 -85.4955 1.83456 -2.28204 -1.6106 2.75418 69.0962 19.5809 -7.80427 -2.92408 0.326437 -1.33678e-009 8.75219e-006 -1.46745e-008 11.4594 12.5206 -2.31972 -0.676532 -1.00705 0.0353089 36.5745 1.74169 0.0664486 39.068 -21.943 7.23016 7.10728 36.5571 9.35806 -10.0851 9.36213 1.27167 -44.5959 3.55952 -3.43782 -29.7427 -10.5826 8.68425 -3.16155 35.9804 -16.098 5.82328 9.61819 -0.917488 1.22612 -12.0889 -8.80405 7.48167 -12.3101 -4.51138 0.647135 28.9986 -20.9562 -0.704005 -15.0533 -0.267891 0.0462048 0.000530889 0.662642 
39.3451 98.4386 4.6409 -8.02293 3.43538 -85.7964 0.692741 -6.80206 -2.44077 3.26234 72.0413 19.6908 -7.07515 -6.1401 0.115333 -1.33678e-009 8.75219e-006 -1.46745e-008 11.3256 12.6438 -1.84603 -1.40174 -0.998941 0.6648 36.2368 1.73395 0.0774972 39.5299 -17.7178 8.37154 6.01117 33.3471 12.0916 -10.1129 9.35441 1.34847 -44.4926 3.54499 -3.42476 -30.253 -9.00174 9.44564 -2.33099 33.6476 -17.5846 5.82328 9.61819 -0.917488 1.20089 -11.6966 -9.52578 7.04388 -9.27389 -3.9973 1.16061 27.8739 -21.4032 -0.574238 -16.632 -0.278104 0.0462048 0.000530889 0.662642 
36.4072 98.8456 4.42306 -8.24067 2.80448 -86.3339 -0.504075 -10.968 -3.44261 3.23666 72.1912 18.8787 -6.35681 -8.07754 0.00983607 -1.33678e-009 8.75219e-006 -1.46745e-008 11.2326 12.8222 -1.33728 -2.20835 -1.25862 1.30911 35.9372 1.72506 0.082544 39.6218 -12.2313 9.20996 4.70746 29.1753 15.2958 -10.0633 9.35306 1.40272 -44.3232 3.52047 -3.40205 -30.6872 -7.66844 10.1562 -1.65913 31.1638 -18.9979 5.82328 9.61819 -0.917488 1.02408 -11.0852 -10.0055 6.50099 -6.40509 -3.83362 1.58831 26.737 -21.2364 -0.581655 -17.9056 -0.29368 0.0462048 0.000530889 0.662642 
33.5097 99.1134 4.22923 -8.51856 2.28135 -87.0506 -1.5803 -14.33 -4.54429 2.74131 69.6938 18.1369 -5.96411 -9.83748 -0.0718881 -1.33678e-009 8.75219e-006 -1.46745e-008 11.1818 13.0625 -0.833879 -3.11094 -1.54577 1.90011 35.7828 1.72068 0.0864165 39.3978 -6.8034 9.98041 3.62799 24.5721 18.4919 -10.0654 9.34207 1.54101 -44.1598 3.49982 -3.38583 -30.9067 -6.83981 10.5559 -1.1377 29.5338 -20.1017 5.82328 9.61819 -0.917488 0.807193 -10.5468 -10.2406 5.98062 -3.55308 -4.11902 1.80716 25.656 -20.3306 -0.496761 -19.1489 -0.300062 0.0462048 0.000530889 0.662642 
30.6148 99.3044 4.03844 -8.77867 1.74693 -87.9065 -2.37298 -16.8233 -5.31367 2.14553 64.6328 17.6421 -6.54368 -11.6678 -0.1779 -1.33678e-009 8.75219e-006 -1.46745e-008 10.8471 13.1794 -0.337109 -3.98927 -1.65757 2.35689 35.7559 1.71936 0.0922506 39.1439 -3.22437 10.9054 2.94588 21.4697 21.2633 -10.0757 9.33876 1.57534 -44.0323 3.48935 -3.38419 -30.9123 -6.51376 10.6506 -0.730774 28.7641 -20.8643 5.82328 9.61819 -0.917488 0.652073 -10.167 -10.1624 5.44926 -0.638876 -4.60326 1.83969 24.4187 -19.0762 -0.517526 -20.4718 -0.317947 0.0462048 0.000530889 0.662642 
